<?xml version="1.0" encoding="utf-8"?>
<!-- Generator: Adobe Illustrator 19.0.0, SVG Export Plug-In . SVG Version: 6.00 Build 0)  -->
<svg version="1.1" id="Layer_1" xmlns="http://www.w3.org/2000/svg" xmlns:xlink="http://www.w3.org/1999/xlink" x="0px" y="0px"
	 viewBox="0 0 186.5 155.5" style="enable-background:new 0 0 186.5 155.5;" xml:space="preserve">
<style type="text/css">
	.st0{fill:#F6F6F6;stroke:#102D4E;stroke-width:5;stroke-miterlimit:10;}
	.st1{fill:none;stroke:#102D4E;stroke-width:5;stroke-miterlimit:10;}
	.st2{fill:#F6F6F6;}
	.st3{fill:#102D4E;}
	.st4{fill:none;stroke:#102D4E;stroke-miterlimit:10;}
</style>
<g id="XMLID_488_">
	<path id="XMLID_558_" class="st0" d="M78,66.2c5.3,11.5-0.6,28.6-5.8,37.1c-1.6,2.6-4.7,4.1-7.7,3.6c-9.8-1.5-26.7-8.1-32.1-19.6
		c-5.6-12.1-1.8-38.8,1.6-49.4c0.7-2.2,3.1-3.3,5.3-2.4C49.6,39.7,72.4,54,78,66.2z"/>
	<line id="XMLID_496_" class="st1" x1="68.9" y1="106.2" x2="36.1" y2="35.5"/>
	<polyline id="XMLID_490_" class="st1" points="30.3,79.8 61.7,91 75.3,60.3 	"/>
	<polyline id="XMLID_489_" class="st1" points="28.9,61.7 52,69.7 59.7,47.4 	"/>
</g>
<g id="XMLID_148_">
	<path id="XMLID_226_" class="st0" d="M57.8,84.8c10.2,7.4,13.5,25.3,13.1,35.2c-0.1,3.1-2.1,5.8-5,6.9c-9.3,3.5-27.3,6-37.5-1.4
		c-10.9-7.8-20.5-33-22.7-43.9C5.2,79.4,6.7,77.3,9,77C20.1,75.7,47,77,57.8,84.8z"/>
	<line id="XMLID_221_" class="st1" x1="69.5" y1="124.2" x2="6.3" y2="78.6"/>
	<polyline id="XMLID_218_" class="st1" points="22.9,120 55.8,114.5 52.6,81.1 	"/>
	<polyline id="XMLID_170_" class="st1" points="12.8,105 36.9,100.7 32.7,77.4 	"/>
</g>
<g id="XMLID_501_">
	<g id="XMLID_476_">
		<g id="XMLID_136_">
			<g id="XMLID_499_">
				<path id="XMLID_505_" class="st0" d="M179,121.6c-4.1-1-8.2-0.9-12.3-0.2c-6.9,1.3-13,5.3-17.3,10.9
					c-12.5,16.1-36,23.3-59.1,16.3c-28.9-8.8-46-36.5-38.3-62c7.7-25.5,37.4-39,66.3-30.3c22.5,6.8,37.9,25.2,39.9,45.1
					c17.7,4,21.9,13.4,22.9,18.1C181.5,120.8,180.3,121.9,179,121.6z"/>
				<g id="XMLID_470_">
					<g id="XMLID_535_">
						<path id="XMLID_402_" class="st2" d="M65.4,91c0,0,2.3,1.8,2.3,4.1"/>
						<g id="XMLID_397_">
							<path id="XMLID_401_" class="st3" d="M64.9,91.5c1.1,0.9,2.1,2.2,2.1,3.7c0,0.8,1.3,0.8,1.2,0c0-1.8-1.1-3.5-2.5-4.6
								C65.2,90.1,64.3,91,64.9,91.5L64.9,91.5z"/>
						</g>
					</g>
					<g id="XMLID_534_">
						<path id="XMLID_395_" class="st2" d="M70.8,94.8c0,0,1.2,2.7,0,4.7"/>
						<g id="XMLID_390_">
							<path id="XMLID_394_" class="st3" d="M70.3,95.1c-0.1-0.2,0.1,0.2,0.1,0.3c0.1,0.3,0.2,0.6,0.2,0.9c0.2,1,0.1,2-0.3,2.9
								c-0.4,0.7,0.7,1.3,1.1,0.6c0.9-1.7,0.7-3.7,0-5.4C71.1,93.8,70,94.4,70.3,95.1L70.3,95.1z"/>
						</g>
					</g>
					<g id="XMLID_526_">
						<path id="XMLID_388_" class="st2" d="M74.8,91.2c0,0,1.1,2.2,0.2,3.9"/>
						<g id="XMLID_383_">
							<path id="XMLID_387_" class="st3" d="M74.3,91.5c0.4,1,0.7,2.2,0.2,3.2c-0.3,0.7,0.7,1.4,1.1,0.6c0.7-1.4,0.4-3.1-0.2-4.5
								C75,90.1,74,90.8,74.3,91.5L74.3,91.5z"/>
						</g>
					</g>
					<g id="XMLID_512_">
						<path id="XMLID_381_" class="st2" d="M69.3,85.5c0,0,1.7,1.8,1.4,3.6"/>
						<g id="XMLID_376_">
							<path id="XMLID_380_" class="st3" d="M68.9,86c0.8,0.8,1.4,2,1.2,3.2c-0.1,0.8,1.1,0.8,1.2,0c0.2-1.5-0.6-3-1.6-4
								C69.2,84.5,68.3,85.4,68.9,86L68.9,86z"/>
						</g>
					</g>
					<g id="XMLID_1007_">
						<path id="XMLID_374_" class="st2" d="M59.9,91.9c0,0,2.3,1.8,2.3,4.1"/>
						<g id="XMLID_369_">
							<path id="XMLID_373_" class="st3" d="M59.4,92.4c1.1,0.9,2.1,2.2,2.1,3.7c0,0.8,1.3,0.8,1.2,0c0-1.8-1.1-3.5-2.5-4.6
								C59.7,91,58.8,91.9,59.4,92.4L59.4,92.4z"/>
						</g>
					</g>
				</g>
				<g id="XMLID_644_">
					<g id="XMLID_670_">
						<path id="XMLID_367_" class="st2" d="M73.2,108.2c0,0,2.3,1.8,2.3,4.1"/>
						<g id="XMLID_362_">
							<path id="XMLID_366_" class="st3" d="M72.8,108.6c1.1,0.9,2.1,2.2,2.1,3.7c0,0.8,1.3,0.8,1.2,0c0-1.8-1.1-3.5-2.5-4.6
								C73,107.2,72.1,108.1,72.8,108.6L72.8,108.6z"/>
						</g>
					</g>
					<g id="XMLID_663_">
						<path id="XMLID_360_" class="st2" d="M78.7,112c0,0,1.2,2.7,0,4.7"/>
						<g id="XMLID_355_">
							<path id="XMLID_359_" class="st3" d="M78.1,112.3c-0.1-0.2,0.1,0.2,0.1,0.3c0.1,0.3,0.2,0.6,0.2,0.9c0.2,1,0.1,2-0.3,2.9
								c-0.4,0.7,0.7,1.3,1.1,0.6c0.9-1.7,0.7-3.7,0-5.4C78.9,110.9,77.8,111.6,78.1,112.3L78.1,112.3z"/>
						</g>
					</g>
					<g id="XMLID_656_">
						<path id="XMLID_353_" class="st2" d="M82.7,108.3c0,0,1.1,2.2,0.2,3.9"/>
						<g id="XMLID_348_">
							<path id="XMLID_352_" class="st3" d="M82.1,108.7c0.4,1,0.7,2.2,0.2,3.2c-0.3,0.7,0.7,1.4,1.1,0.6c0.7-1.4,0.4-3.1-0.2-4.5
								C82.9,107.3,81.8,107.9,82.1,108.7L82.1,108.7z"/>
						</g>
					</g>
					<g id="XMLID_649_">
						<path id="XMLID_346_" class="st2" d="M77.1,102.7c0,0,1.7,1.8,1.4,3.6"/>
						<g id="XMLID_341_">
							<path id="XMLID_345_" class="st3" d="M76.7,103.1c0.8,0.8,1.4,2,1.2,3.2c-0.1,0.8,1.1,0.8,1.2,0c0.2-1.5-0.6-3-1.6-4
								C77,101.6,76.2,102.5,76.7,103.1L76.7,103.1z"/>
						</g>
					</g>
				</g>
				<g id="XMLID_677_">
					<g id="XMLID_703_">
						<path id="XMLID_339_" class="st2" d="M88.1,113.5c0,0,2.3,1.8,2.3,4.1"/>
						<g id="XMLID_334_">
							<path id="XMLID_338_" class="st3" d="M87.7,114c1.1,0.9,2.1,2.2,2.1,3.7c0,0.8,1.3,0.8,1.2,0c0-1.8-1.1-3.5-2.5-4.6
								C87.9,112.6,87,113.5,87.7,114L87.7,114z"/>
						</g>
					</g>
					<g id="XMLID_696_">
						<path id="XMLID_332_" class="st2" d="M93.6,117.4c0,0,1.2,2.7,0,4.7"/>
						<g id="XMLID_327_">
							<path id="XMLID_331_" class="st3" d="M93,117.7c-0.1-0.2,0.1,0.2,0.1,0.3c0.1,0.3,0.2,0.6,0.2,0.9c0.2,1,0.1,2-0.3,2.9
								c-0.4,0.7,0.7,1.3,1.1,0.6c0.9-1.7,0.7-3.7,0-5.4C93.8,116.3,92.7,116.9,93,117.7L93,117.7z"/>
						</g>
					</g>
					<g id="XMLID_689_">
						<path id="XMLID_325_" class="st2" d="M97.5,113.7c0,0,1.1,2.2,0.2,3.9"/>
						<g id="XMLID_320_">
							<path id="XMLID_324_" class="st3" d="M97,114c0.4,1,0.7,2.2,0.2,3.2c-0.3,0.7,0.7,1.4,1.1,0.6c0.7-1.4,0.4-3.1-0.2-4.5
								C97.7,112.7,96.7,113.3,97,114L97,114z"/>
						</g>
					</g>
					<g id="XMLID_682_">
						<path id="XMLID_318_" class="st2" d="M92,108.1c0,0,1.7,1.8,1.4,3.6"/>
						<g id="XMLID_313_">
							<path id="XMLID_317_" class="st3" d="M91.6,108.5c0.8,0.8,1.4,2,1.2,3.2c-0.1,0.8,1.1,0.8,1.2,0c0.2-1.5-0.6-3-1.6-4
								C91.9,107,91,107.9,91.6,108.5L91.6,108.5z"/>
						</g>
					</g>
				</g>
				<g id="XMLID_710_">
					<g id="XMLID_736_">
						<path id="XMLID_311_" class="st2" d="M81.4,127.2c0,0,2.3,1.8,2.3,4.1"/>
						<g id="XMLID_306_">
							<path id="XMLID_310_" class="st3" d="M80.9,127.6c1.1,0.9,2.1,2.2,2.1,3.7c0,0.8,1.3,0.8,1.2,0c0-1.8-1.1-3.5-2.5-4.6
								C81.2,126.2,80.3,127.1,80.9,127.6L80.9,127.6z"/>
						</g>
					</g>
					<g id="XMLID_729_">
						<path id="XMLID_304_" class="st2" d="M86.8,131c0,0,1.2,2.7,0,4.7"/>
						<g id="XMLID_299_">
							<path id="XMLID_303_" class="st3" d="M86.3,131.3c-0.1-0.2,0.1,0.2,0.1,0.3c0.1,0.3,0.2,0.6,0.2,0.9c0.2,1,0.1,2-0.3,2.9
								c-0.4,0.7,0.7,1.3,1.1,0.6c0.9-1.7,0.7-3.7,0-5.4C87,129.9,86,130.5,86.3,131.3L86.3,131.3z"/>
						</g>
					</g>
					<g id="XMLID_722_">
						<path id="XMLID_297_" class="st2" d="M90.8,127.3c0,0,1.1,2.2,0.2,3.9"/>
						<g id="XMLID_292_">
							<path id="XMLID_296_" class="st3" d="M90.3,127.6c0.4,1,0.7,2.2,0.2,3.2c-0.3,0.7,0.7,1.4,1.1,0.6c0.7-1.4,0.4-3.1-0.2-4.5
								C91,126.3,89.9,126.9,90.3,127.6L90.3,127.6z"/>
						</g>
					</g>
					<g id="XMLID_715_">
						<path id="XMLID_290_" class="st2" d="M85.3,121.7c0,0,1.7,1.8,1.4,3.6"/>
						<g id="XMLID_285_">
							<path id="XMLID_289_" class="st3" d="M84.8,122.1c0.8,0.8,1.4,2,1.2,3.2c-0.1,0.8,1.1,0.8,1.2,0c0.2-1.5-0.6-3-1.6-4
								C85.2,120.6,84.3,121.5,84.8,122.1L84.8,122.1z"/>
						</g>
					</g>
				</g>
				<g id="XMLID_743_">
					<g id="XMLID_769_">
						<path id="XMLID_283_" class="st2" d="M98,129.6c0,0,2.3,1.8,2.3,4.1"/>
						<g id="XMLID_278_">
							<path id="XMLID_282_" class="st3" d="M97.6,130c1.1,0.9,2.1,2.2,2.1,3.7c0,0.8,1.3,0.8,1.2,0c0-1.8-1.1-3.5-2.5-4.6
								C97.8,128.7,96.9,129.5,97.6,130L97.6,130z"/>
						</g>
					</g>
					<g id="XMLID_762_">
						<path id="XMLID_276_" class="st2" d="M103.5,133.4c0,0,1.2,2.7,0,4.7"/>
						<g id="XMLID_271_">
							<path id="XMLID_275_" class="st3" d="M102.9,133.7c-0.1-0.2,0.1,0.2,0.1,0.3c0.1,0.3,0.2,0.6,0.2,0.9c0.2,1,0.1,2-0.3,2.9
								c-0.4,0.7,0.7,1.3,1.1,0.6c0.9-1.7,0.7-3.7,0-5.4C103.7,132.3,102.6,133,102.9,133.7L102.9,133.7z"/>
						</g>
					</g>
					<g id="XMLID_755_">
						<path id="XMLID_269_" class="st2" d="M107.5,129.8c0,0,1.1,2.2,0.2,3.9"/>
						<g id="XMLID_264_">
							<path id="XMLID_268_" class="st3" d="M106.9,130.1c0.4,1,0.7,2.2,0.2,3.2c-0.3,0.7,0.7,1.4,1.1,0.6c0.7-1.4,0.4-3.1-0.2-4.5
								C107.6,128.7,106.6,129.4,106.9,130.1L106.9,130.1z"/>
						</g>
					</g>
					<g id="XMLID_748_">
						<path id="XMLID_262_" class="st2" d="M101.9,124.1c0,0,1.7,1.8,1.4,3.6"/>
						<g id="XMLID_257_">
							<path id="XMLID_261_" class="st3" d="M101.5,124.5c0.8,0.8,1.4,2,1.2,3.2c-0.1,0.8,1.1,0.8,1.2,0c0.2-1.5-0.6-3-1.6-4
								C101.8,123.1,100.9,124,101.5,124.5L101.5,124.5z"/>
						</g>
					</g>
				</g>
				<g id="XMLID_776_">
					<g id="XMLID_802_">
						<path id="XMLID_255_" class="st2" d="M113.7,135.2c0,0,2.3,1.8,2.3,4.1"/>
						<g id="XMLID_250_">
							<path id="XMLID_254_" class="st3" d="M113.2,135.7c1.1,0.9,2.1,2.2,2.1,3.7c0,0.8,1.3,0.8,1.2,0c0-1.8-1.1-3.5-2.5-4.6
								C113.5,134.3,112.6,135.2,113.2,135.7L113.2,135.7z"/>
						</g>
					</g>
					<g id="XMLID_795_">
						<path id="XMLID_248_" class="st2" d="M119.1,139c0,0,1.2,2.7,0,4.7"/>
						<g id="XMLID_243_">
							<path id="XMLID_247_" class="st3" d="M118.6,139.3c-0.1-0.2,0.1,0.2,0.1,0.3c0.1,0.3,0.2,0.6,0.2,0.9c0.2,1,0.1,2-0.3,2.9
								c-0.4,0.7,0.7,1.3,1.1,0.6c0.9-1.7,0.7-3.7,0-5.4C119.4,138,118.3,138.6,118.6,139.3L118.6,139.3z"/>
						</g>
					</g>
					<g id="XMLID_788_">
						<path id="XMLID_241_" class="st2" d="M123.1,135.4c0,0,1.1,2.2,0.2,3.9"/>
						<g id="XMLID_236_">
							<path id="XMLID_240_" class="st3" d="M122.6,135.7c0.4,1,0.7,2.2,0.2,3.2c-0.3,0.7,0.7,1.4,1.1,0.6c0.7-1.4,0.4-3.1-0.2-4.5
								C123.3,134.4,122.2,135,122.6,135.7L122.6,135.7z"/>
						</g>
					</g>
					<g id="XMLID_781_">
						<path id="XMLID_234_" class="st2" d="M117.6,129.7c0,0,1.7,1.8,1.4,3.6"/>
						<g id="XMLID_229_">
							<path id="XMLID_233_" class="st3" d="M117.2,130.2c0.8,0.8,1.4,2,1.2,3.2c-0.1,0.8,1.1,0.8,1.2,0c0.2-1.5-0.6-3-1.6-4
								C117.5,128.7,116.6,129.6,117.2,130.2L117.2,130.2z"/>
						</g>
					</g>
				</g>
				<g id="XMLID_809_">
					<g id="XMLID_835_">
						<path id="XMLID_227_" class="st2" d="M67.3,124.6c0,0,2.3,1.8,2.3,4.1"/>
						<g id="XMLID_220_">
							<path id="XMLID_225_" class="st3" d="M66.9,125.1c1.1,0.9,2.1,2.2,2.1,3.7c0,0.8,1.3,0.8,1.2,0c0-1.8-1.1-3.5-2.5-4.6
								C67.2,123.7,66.3,124.6,66.9,125.1L66.9,125.1z"/>
						</g>
					</g>
					<g id="XMLID_828_">
						<path id="XMLID_216_" class="st2" d="M72.8,128.4c0,0,1.2,2.7,0,4.7"/>
						<g id="XMLID_211_">
							<path id="XMLID_215_" class="st3" d="M72.3,128.8c-0.1-0.2,0.1,0.2,0.1,0.3c0.1,0.3,0.2,0.6,0.2,0.9c0.2,1,0.1,2-0.3,2.9
								c-0.4,0.7,0.7,1.3,1.1,0.6c0.9-1.7,0.7-3.7,0-5.4C73,127.4,72,128,72.3,128.8L72.3,128.8z"/>
						</g>
					</g>
					<g id="XMLID_821_">
						<path id="XMLID_209_" class="st2" d="M76.8,124.8c0,0,1.1,2.2,0.2,3.9"/>
						<g id="XMLID_204_">
							<path id="XMLID_208_" class="st3" d="M76.3,125.1c0.4,1,0.7,2.2,0.2,3.2c-0.3,0.7,0.7,1.4,1.1,0.6c0.7-1.4,0.4-3.1-0.2-4.5
								C77,123.8,75.9,124.4,76.3,125.1L76.3,125.1z"/>
						</g>
					</g>
					<g id="XMLID_814_">
						<path id="XMLID_202_" class="st2" d="M71.3,119.1c0,0,1.7,1.8,1.4,3.6"/>
						<g id="XMLID_197_">
							<path id="XMLID_201_" class="st3" d="M70.8,119.6c0.8,0.8,1.4,2,1.2,3.2c-0.1,0.8,1.1,0.8,1.2,0c0.2-1.5-0.6-3-1.6-4
								C71.2,118.1,70.3,119,70.8,119.6L70.8,119.6z"/>
						</g>
					</g>
				</g>
				<g id="XMLID_842_">
					<g id="XMLID_868_">
						<path id="XMLID_195_" class="st2" d="M90,144.5c0,0,2.3,1.8,2.3,4.1"/>
						<g id="XMLID_190_">
							<path id="XMLID_194_" class="st3" d="M89.5,145c1.1,0.9,2.1,2.2,2.1,3.7c0,0.8,1.3,0.8,1.2,0c0-1.8-1.1-3.5-2.5-4.6
								C89.8,143.6,88.9,144.5,89.5,145L89.5,145z"/>
						</g>
					</g>
					<g id="XMLID_854_">
						<path id="XMLID_188_" class="st2" d="M99.4,144.7c0,0,1.1,2.2,0.2,3.9"/>
						<g id="XMLID_183_">
							<path id="XMLID_187_" class="st3" d="M98.9,145c0.4,1,0.7,2.2,0.2,3.2c-0.3,0.7,0.7,1.4,1.1,0.6c0.7-1.4,0.4-3.1-0.2-4.5
								C99.6,143.7,98.6,144.3,98.9,145L98.9,145z"/>
						</g>
					</g>
					<g id="XMLID_847_">
						<path id="XMLID_181_" class="st2" d="M93.9,139c0,0,1.7,1.8,1.4,3.6"/>
						<g id="XMLID_176_">
							<path id="XMLID_180_" class="st3" d="M93.5,139.5c0.8,0.8,1.4,2,1.2,3.2c-0.1,0.8,1.1,0.8,1.2,0c0.2-1.5-0.6-3-1.6-4
								C93.8,138,92.9,138.9,93.5,139.5L93.5,139.5z"/>
						</g>
					</g>
				</g>
				<g id="XMLID_875_">
					<g id="XMLID_901_">
						<path id="XMLID_174_" class="st2" d="M57.4,108.6c0,0,2.3,1.8,2.3,4.1"/>
						<g id="XMLID_168_">
							<path id="XMLID_173_" class="st3" d="M57,109c1.1,0.9,2.1,2.2,2.1,3.7c0,0.8,1.3,0.8,1.2,0c0-1.8-1.1-3.5-2.5-4.6
								C57.3,107.7,56.4,108.5,57,109L57,109z"/>
						</g>
					</g>
					<g id="XMLID_894_">
						<path id="XMLID_166_" class="st2" d="M62.9,112.4c0,0,1.2,2.7,0,4.7"/>
						<g id="XMLID_161_">
							<path id="XMLID_165_" class="st3" d="M62.4,112.7c-0.1-0.2,0.1,0.2,0.1,0.3c0.1,0.3,0.2,0.6,0.2,0.9c0.2,1,0.1,2-0.3,2.9
								c-0.4,0.7,0.7,1.3,1.1,0.6c0.9-1.7,0.7-3.7,0-5.4C63.1,111.3,62,112,62.4,112.7L62.4,112.7z"/>
						</g>
					</g>
					<g id="XMLID_887_">
						<path id="XMLID_159_" class="st2" d="M66.9,108.8c0,0,1.1,2.2,0.2,3.9"/>
						<g id="XMLID_154_">
							<path id="XMLID_158_" class="st3" d="M66.4,109.1c0.4,1,0.7,2.2,0.2,3.2c-0.3,0.7,0.7,1.4,1.1,0.6c0.7-1.4,0.4-3.1-0.2-4.5
								C67.1,107.7,66,108.4,66.4,109.1L66.4,109.1z"/>
						</g>
					</g>
					<g id="XMLID_880_">
						<path id="XMLID_152_" class="st2" d="M61.4,103.1c0,0,1.7,1.8,1.4,3.6"/>
						<g id="XMLID_146_">
							<path id="XMLID_151_" class="st3" d="M60.9,103.5c0.8,0.8,1.4,2,1.2,3.2c-0.1,0.8,1.1,0.8,1.2,0c0.2-1.5-0.6-3-1.6-4
								C61.3,102.1,60.4,102.9,60.9,103.5L60.9,103.5z"/>
						</g>
					</g>
				</g>
				<g id="XMLID_908_">
					<g id="XMLID_934_">
						<path id="XMLID_144_" class="st2" d="M59.1,74.3c0,0,2.3,1.8,2.3,4.1"/>
						<g id="XMLID_139_">
							<path id="XMLID_143_" class="st3" d="M58.7,74.8c1.1,0.9,2.1,2.2,2.1,3.7c0,0.8,1.3,0.8,1.2,0c0-1.8-1.1-3.5-2.5-4.6
								C59,73.4,58.1,74.3,58.7,74.8L58.7,74.8z"/>
						</g>
					</g>
					<g id="XMLID_927_">
						<path id="XMLID_137_" class="st2" d="M64.6,78.1c0,0,1.2,2.7,0,4.7"/>
						<g id="XMLID_131_">
							<path id="XMLID_135_" class="st3" d="M64.1,78.5c-0.1-0.2,0.1,0.2,0.1,0.3c0.1,0.3,0.2,0.6,0.2,0.9c0.2,1,0.1,2-0.3,2.9
								c-0.4,0.7,0.7,1.3,1.1,0.6c0.9-1.7,0.7-3.7,0-5.4C64.8,77.1,63.8,77.7,64.1,78.5L64.1,78.5z"/>
						</g>
					</g>
					<g id="XMLID_920_">
						<path id="XMLID_129_" class="st2" d="M68.6,74.5c0,0,1.1,2.2,0.2,3.9"/>
						<g id="XMLID_124_">
							<path id="XMLID_128_" class="st3" d="M68.1,74.8c0.4,1,0.7,2.2,0.2,3.2c-0.3,0.7,0.7,1.4,1.1,0.6c0.7-1.4,0.4-3.1-0.2-4.5
								C68.8,73.5,67.7,74.1,68.1,74.8L68.1,74.8z"/>
						</g>
					</g>
					<g id="XMLID_913_">
						<path id="XMLID_122_" class="st2" d="M63.1,68.8c0,0,1.7,1.8,1.4,3.6"/>
						<g id="XMLID_117_">
							<path id="XMLID_121_" class="st3" d="M62.6,69.3c0.8,0.8,1.4,2,1.2,3.2c-0.1,0.8,1.1,0.8,1.2,0c0.2-1.5-0.6-3-1.6-4
								C63,67.8,62.1,68.7,62.6,69.3L62.6,69.3z"/>
						</g>
					</g>
				</g>
				<g id="XMLID_1012_">
					<g id="XMLID_1040_">
						<path id="XMLID_115_" class="st2" d="M105.8,146.7c0,0,2.3,1.8,2.3,4.1"/>
						<g id="XMLID_110_">
							<path id="XMLID_114_" class="st3" d="M105.4,147.2c1.1,0.9,2.1,2.2,2.1,3.7c0,0.8,1.3,0.8,1.2,0c0-1.8-1.1-3.5-2.5-4.6
								C105.6,145.8,104.8,146.7,105.4,147.2L105.4,147.2z"/>
						</g>
					</g>
					<g id="XMLID_1026_">
						<path id="XMLID_108_" class="st2" d="M115.3,146.9c0,0,1.1,2.2,0.2,3.9"/>
						<g id="XMLID_103_">
							<path id="XMLID_107_" class="st3" d="M114.7,147.2c0.4,1,0.7,2.2,0.2,3.2c-0.3,0.7,0.7,1.4,1.1,0.6c0.7-1.4,0.4-3.1-0.2-4.5
								C115.5,145.9,114.4,146.5,114.7,147.2L114.7,147.2z"/>
						</g>
					</g>
					<g id="XMLID_1019_">
						<path id="XMLID_101_" class="st2" d="M109.8,141.2c0,0,1.7,1.8,1.4,3.6"/>
						<g id="XMLID_96_">
							<path id="XMLID_100_" class="st3" d="M109.3,141.7c0.8,0.8,1.4,2,1.2,3.2c-0.1,0.8,1.1,0.8,1.2,0c0.2-1.5-0.6-3-1.6-4
								C109.7,140.2,108.8,141.1,109.3,141.7L109.3,141.7z"/>
						</g>
					</g>
				</g>
			</g>
			<path id="XMLID_482_" class="st0" d="M140.7,52.8c0,0,4-30.1,35.1-45.8c1.5-0.8,3.3,0.1,3.6,1.8c2,9.9,5.9,50.6-18,69.2"/>
			<path id="XMLID_481_" class="st0" d="M111.3,52.8c0,0-4-30.1-35.1-45.8c-1.5-0.8-3.3,0.1-3.6,1.8c-2,9.9-5.9,50.6,18,69.2"/>
			<path id="XMLID_480_" class="st0" d="M163,84.9c0,18.9-21,39.6-36.7,39.6c-16.3,0-36.7-20.7-36.7-39.6S106.3,50,126.3,50
				S163,66,163,84.9z"/>
			<g id="XMLID_467_">
				<path id="XMLID_94_" class="st2" d="M97.1,64.1c0,0,0.4-13.7-13.1-24.8"/>
				<g id="XMLID_89_">
					<path id="XMLID_93_" class="st3" d="M99.6,64.1c0.2-10.3-6.3-20.1-13.8-26.6c-2.4-2.1-6,1.4-3.5,3.5c6.5,5.6,12.5,14,12.4,23
						C94.5,67.3,99.5,67.3,99.6,64.1L99.6,64.1z"/>
				</g>
			</g>
			<path id="XMLID_465_" class="st2" d="M85.8,36.9c0,0,16.4,13.7,13.4,32c-2.6,15.6,11.3-6.4,11.5-10.9c0.2-3.8-5.6-13.2-7.6-15.7
				C101.2,39.7,85.8,36.9,85.8,36.9z"/>
			<g id="XMLID_454_">
				<path id="XMLID_87_" class="st2" d="M154.9,63.1c0,0-0.4-12.7,13.1-23.8"/>
				<g id="XMLID_82_">
					<path id="XMLID_86_" class="st3" d="M157.4,63.1c-0.2-8.7,6.1-16.7,12.4-22c2.5-2.1-1.1-5.6-3.5-3.5
						c-7.2,6.2-14,15.6-13.8,25.6C152.5,66.3,157.5,66.3,157.4,63.1L157.4,63.1z"/>
				</g>
			</g>
			<path id="XMLID_453_" class="st2" d="M165.2,37.9c0,0-15.4,12.7-12.4,31c2.6,15.6-10.3-8.4-10.5-12.9c-0.2-3.8,4.6-11.2,6.6-13.7
				C150.8,39.7,165.2,37.9,165.2,37.9z"/>
			<path id="XMLID_433_" class="st3" d="M130.4,115.1c0,1.8-2.3,4.7-4.2,4.7c-1.9,0-4.2-2.9-4.2-4.7c0-1.8,2.3-1.5,4.2-1.5
				C128.1,113.5,130.4,113.3,130.4,115.1z"/>
			<path id="XMLID_219_" class="st4" d="M123.2,116.2"/>
			<path id="XMLID_483_" class="st3" d="M107.1,99.5c0-2,3.5,0.2,5.4,0.2c2,0,5.4-2.2,5.4-0.2c0,2-3.5,3.5-5.4,3.5
				C110.5,103,107.1,101.4,107.1,99.5z"/>
			<path id="XMLID_478_" class="st3" d="M133.4,99.5c0-2,3.5,0.2,5.4,0.2s5.4-2.2,5.4-0.2c0,2-3.5,3.5-5.4,3.5
				S133.4,101.4,133.4,99.5z"/>
			<g id="XMLID_503_">
				<g id="XMLID_1043_">
					<path id="XMLID_80_" class="st2" d="M112.5,77.2c0,0,2.7,1,3.4,3.3"/>
					<g id="XMLID_75_">
						<path id="XMLID_79_" class="st3" d="M112.3,77.8C112.4,77.9,112.3,77.8,112.3,77.8c0.1,0,0.2,0.1,0.3,0.1
							c0.3,0.2,0.6,0.3,0.9,0.5c0.8,0.5,1.5,1.3,1.8,2.2c0.2,0.8,1.4,0.4,1.2-0.3c-0.6-1.8-2.1-3.1-3.8-3.7
							C111.9,76.3,111.6,77.5,112.3,77.8L112.3,77.8z"/>
					</g>
				</g>
				<g id="XMLID_604_">
					<path id="XMLID_73_" class="st2" d="M118.8,79.3c0,0,1.9,2.2,1.4,4.5"/>
					<g id="XMLID_68_">
						<path id="XMLID_72_" class="st3" d="M118.4,79.7c0.9,1,1.5,2.5,1.2,3.9c-0.1,0.8,1.1,1.1,1.2,0.3c0.3-1.8-0.4-3.7-1.5-5.1
							C118.8,78.2,117.9,79.1,118.4,79.7L118.4,79.7z"/>
					</g>
				</g>
				<g id="XMLID_596_">
					<path id="XMLID_66_" class="st2" d="M121.6,74.6c0,0,1.7,1.8,1.3,3.6"/>
					<g id="XMLID_61_">
						<path id="XMLID_65_" class="st3" d="M121.2,75.1c0.7,0.8,1.3,1.9,1.2,3c-0.1,0.8,1.1,1.1,1.2,0.3c0.2-1.6-0.5-3.1-1.5-4.2
							C121.5,73.6,120.6,74.5,121.2,75.1L121.2,75.1z"/>
					</g>
				</g>
				<g id="XMLID_588_">
					<path id="XMLID_59_" class="st2" d="M114.7,70.8c0,0,2.2,1.2,2.4,3"/>
					<g id="XMLID_54_">
						<path id="XMLID_58_" class="st3" d="M114.3,71.4c1,0.6,1.9,1.5,2.1,2.7c0.1,0.8,1.3,0.5,1.2-0.3c-0.2-1.5-1.4-2.7-2.7-3.4
							C114.3,69.9,113.7,71,114.3,71.4L114.3,71.4z"/>
					</g>
				</g>
				<g id="XMLID_579_">
					<path id="XMLID_52_" class="st2" d="M138.8,77c0,0-2.7,1-3.4,3.3"/>
					<g id="XMLID_47_">
						<path id="XMLID_51_" class="st3" d="M138.6,76.4c-1.7,0.7-3.3,2-3.8,3.7c-0.2,0.8,1,1.1,1.2,0.3c0.3-0.9,1-1.7,1.8-2.2
							c0.3-0.2,0.6-0.4,0.9-0.5c0.1-0.1,0.2-0.1,0.3-0.1c0.1-0.1-0.1,0,0,0C139.7,77.3,139.4,76.1,138.6,76.4L138.6,76.4z"/>
					</g>
				</g>
				<g id="XMLID_509_">
					<path id="XMLID_45_" class="st2" d="M132.5,79c0,0-1.9,2.2-1.4,4.5"/>
					<g id="XMLID_40_">
						<path id="XMLID_44_" class="st3" d="M132,78.6c-1.2,1.4-1.9,3.3-1.5,5.1c0.1,0.8,1.3,0.5,1.2-0.3c-0.2-1.4,0.4-2.9,1.2-3.9
							C133.4,78.9,132.5,78,132,78.6L132,78.6z"/>
					</g>
				</g>
				<g id="XMLID_508_">
					<path id="XMLID_38_" class="st2" d="M129.7,74.4c0,0-1.7,1.8-1.3,3.6"/>
					<g id="XMLID_33_">
						<path id="XMLID_37_" class="st3" d="M129.3,74c-1,1.1-1.7,2.7-1.5,4.2c0.1,0.8,1.3,0.5,1.2-0.3c-0.2-1.1,0.5-2.2,1.2-3
							C130.7,74.3,129.8,73.4,129.3,74L129.3,74z"/>
					</g>
				</g>
				<g id="XMLID_507_">
					<path id="XMLID_31_" class="st2" d="M136.6,70.6c0,0-2.2,1.2-2.4,3"/>
					<g id="XMLID_26_">
						<path id="XMLID_30_" class="st3" d="M136.3,70c-1.2,0.7-2.4,2-2.7,3.4c-0.1,0.8,1.1,1.1,1.2,0.3c0.2-1.2,1.1-2.1,2.1-2.7
							C137.6,70.7,137,69.6,136.3,70L136.3,70z"/>
					</g>
				</g>
				<g id="XMLID_506_">
					<line id="XMLID_24_" class="st2" x1="125.6" y1="81.5" x2="125.6" y2="84.9"/>
					<g id="XMLID_19_">
						<path id="XMLID_23_" class="st3" d="M124.9,81.5c0,1.1,0,2.3,0,3.4c0,0.8,1.2,0.8,1.2,0c0-1.1,0-2.3,0-3.4
							C126.2,80.7,124.9,80.7,124.9,81.5L124.9,81.5z"/>
					</g>
				</g>
			</g>
		</g>
	</g>
	<g id="XMLID_500_">
		<path id="XMLID_17_" class="st2" d="M121.1,128.6c0,0-21.7-33.1-48.8-28.7"/>
		<g id="XMLID_12_">
			<path id="XMLID_16_" class="st3" d="M123.3,127.4c-11.1-16.8-30.4-32.8-51.7-29.9c-3.2,0.4-1.8,5.3,1.3,4.8
				c18.7-2.6,36.3,12.9,46,27.6C120.7,132.6,125.1,130.1,123.3,127.4L123.3,127.4z"/>
		</g>
	</g>
</g>
</svg>
