<?xml version="1.0" encoding="utf-8"?>
<!-- Generator: Adobe Illustrator 19.0.0, SVG Export Plug-In . SVG Version: 6.00 Build 0)  -->
<svg version="1.1" id="Layer_1" xmlns="http://www.w3.org/2000/svg" xmlns:xlink="http://www.w3.org/1999/xlink" x="0px" y="0px"
	 viewBox="-20 45.8 157.1 111.2" style="enable-background:new -20 45.8 157.1 111.2;" xml:space="preserve">
<style type="text/css">
	.st0{fill:#F6F6F6;}
	.st1{fill:#102D4E;}
	.st2{opacity:0.6;}
	.st3{fill:none;stroke:#102D4E;stroke-width:2;stroke-miterlimit:10;}
</style>
<g id="XMLID_296_">
	<g id="XMLID_378_">
		<g id="XMLID_380_">
			<path id="XMLID_30_" class="st0" d="M118.2,138.1c0,16.1-24.6,13.6-51.2,13.6H3c-4.7,0-7.6-5.2-4.8-9.1c3.1-4.4,6.8-6.6,11.4-12
				c13-15.1,28.4-37.3,57.5-37.3C93.6,93.3,118.2,106.2,118.2,138.1z"/>
			<g id="XMLID_25_">
				<path id="XMLID_29_" class="st1" d="M115.7,138.1c-0.4,11.1-15.9,10.9-23.9,11.2c-8.9,0.3-17.7-0.1-26.6-0.1
					c-14,0-27.9,0-41.9,0c-6,0-11.9,0-17.9,0c-2.1,0-4.4,0.3-5.4-2.1c-1.8-4.3,9.3-12.4,12-15.4C26.7,114.6,41.6,96.4,66.2,96
					c11.7-0.2,24.1,2.2,33.8,9.1C110.9,112.6,115.5,125,115.7,138.1c0,3.2,5,3.2,5,0c-0.1-12.1-3.7-24-12.5-32.7
					c-8.2-8.1-19.4-12.2-30.6-13.7c-13-1.8-26.1-0.2-37.6,6.4c-10.9,5.9-19.3,15.3-27.2,24.7C8.4,128,3.7,132.6-1,137.6
					c-3.5,3.7-6.3,8.5-2.8,13.2c3.4,4.5,10.1,3.4,15.1,3.4c17.2,0,34.3,0,51.5,0c11.3,0,22.7,0.6,34-0.2
					c10.4-0.7,23.5-3.2,23.9-15.9C120.8,134.8,115.8,134.8,115.7,138.1z"/>
			</g>
		</g>
		<g id="XMLID_379_">
			<path id="XMLID_23_" class="st0" d="M20.8,137.7"/>
			<g id="XMLID_18_">
				<path id="XMLID_22_" class="st1" d="M20.8,140.2c3.2,0,3.2-5,0-5S17.6,140.2,20.8,140.2L20.8,140.2z"/>
			</g>
		</g>
	</g>
	<g id="XMLID_298_" class="st2">
		<line id="XMLID_377_" class="st3" x1="50.4" y1="99.7" x2="48.1" y2="105.2"/>
		<line id="XMLID_376_" class="st3" x1="62.5" y1="96.7" x2="60.1" y2="102.2"/>
		<line id="XMLID_375_" class="st3" x1="43.2" y1="105.7" x2="40.8" y2="111.2"/>
		<line id="XMLID_374_" class="st3" x1="34" y1="111.7" x2="31.6" y2="117.2"/>
		<line id="XMLID_373_" class="st3" x1="46.9" y1="115.6" x2="44.5" y2="121.1"/>
		<line id="XMLID_372_" class="st3" x1="57.7" y1="107.8" x2="55.4" y2="113.3"/>
		<line id="XMLID_371_" class="st3" x1="70.6" y1="101" x2="68.2" y2="106.5"/>
		<line id="XMLID_370_" class="st3" x1="81.5" y1="100" x2="79.1" y2="105.5"/>
		<line id="XMLID_369_" class="st3" x1="91.4" y1="105.8" x2="89" y2="111.3"/>
		<line id="XMLID_368_" class="st3" x1="100.3" y1="113.6" x2="97.9" y2="119.1"/>
		<line id="XMLID_367_" class="st3" x1="107.2" y1="124.3" x2="104.8" y2="129.8"/>
		<line id="XMLID_366_" class="st3" x1="99.3" y1="125.3" x2="96.9" y2="130.8"/>
		<line id="XMLID_365_" class="st3" x1="92.3" y1="116.5" x2="90" y2="122"/>
		<line id="XMLID_364_" class="st3" x1="82.5" y1="110.7" x2="80.1" y2="116.2"/>
		<line id="XMLID_363_" class="st3" x1="73.6" y1="110.7" x2="71.2" y2="116.2"/>
		<line id="XMLID_362_" class="st3" x1="63.3" y1="116.7" x2="62.3" y2="119.1"/>
		<line id="XMLID_361_" class="st3" x1="76.5" y1="118.5" x2="74.2" y2="124"/>
		<line id="XMLID_360_" class="st3" x1="68.6" y1="120.4" x2="66.3" y2="125.9"/>
		<line id="XMLID_359_" class="st3" x1="54.8" y1="120.4" x2="52.4" y2="125.9"/>
		<line id="XMLID_358_" class="st3" x1="86.4" y1="120.4" x2="84.1" y2="125.9"/>
		<line id="XMLID_357_" class="st3" x1="75.4" y1="104.5" x2="74.2" y2="107.4"/>
		<line id="XMLID_356_" class="st3" x1="63.6" y1="106.5" x2="62.3" y2="109.4"/>
		<line id="XMLID_355_" class="st3" x1="49.7" y1="109.4" x2="48.5" y2="112.3"/>
		<line id="XMLID_354_" class="st3" x1="60.6" y1="122" x2="59.3" y2="124.9"/>
		<line id="XMLID_353_" class="st3" x1="90.3" y1="125.9" x2="89" y2="128.8"/>
		<line id="XMLID_352_" class="st3" x1="96.2" y1="109.4" x2="94.9" y2="112.3"/>
		<line id="XMLID_351_" class="st3" x1="87.3" y1="113.3" x2="86" y2="116.2"/>
		<line id="XMLID_350_" class="st3" x1="86.3" y1="103.6" x2="85" y2="106.5"/>
		<line id="XMLID_349_" class="st3" x1="75.4" y1="98.7" x2="74.2" y2="101.6"/>
		<line id="XMLID_348_" class="st3" x1="52.7" y1="116.2" x2="51.4" y2="119.1"/>
		<line id="XMLID_347_" class="st3" x1="39.8" y1="115.2" x2="38.6" y2="118.1"/>
		<line id="XMLID_346_" class="st3" x1="27" y1="118.1" x2="25.7" y2="121.1"/>
		<line id="XMLID_345_" class="st3" x1="68.6" y1="110.7" x2="66.3" y2="116.2"/>
		<line id="XMLID_344_" class="st3" x1="59.7" y1="113.6" x2="57.4" y2="119.1"/>
		<line id="XMLID_343_" class="st3" x1="56.8" y1="102" x2="54.4" y2="107.4"/>
		<line id="XMLID_342_" class="st3" x1="67.6" y1="96.1" x2="65.3" y2="101.6"/>
		<line id="XMLID_341_" class="st3" x1="78.5" y1="107.8" x2="76.1" y2="113.3"/>
		<line id="XMLID_340_" class="st3" x1="80.5" y1="121.4" x2="78.1" y2="126.9"/>
		<line id="XMLID_339_" class="st3" x1="96.3" y1="120.4" x2="93.9" y2="125.9"/>
		<line id="XMLID_338_" class="st3" x1="104.2" y1="116.5" x2="101.9" y2="122"/>
		<line id="XMLID_337_" class="st3" x1="102.2" y1="130.2" x2="99.9" y2="135.6"/>
		<line id="XMLID_336_" class="st3" x1="110.1" y1="130.2" x2="107.8" y2="135.6"/>
		<line id="XMLID_335_" class="st3" x1="105.2" y1="137" x2="102.8" y2="142.4"/>
		<line id="XMLID_334_" class="st3" x1="93.3" y1="129.2" x2="91" y2="134.7"/>
		<line id="XMLID_333_" class="st3" x1="96.3" y1="135" x2="93.9" y2="140.5"/>
		<line id="XMLID_332_" class="st3" x1="99.3" y1="140.9" x2="96.9" y2="146.3"/>
		<line id="XMLID_331_" class="st3" x1="86.4" y1="129.2" x2="84.8" y2="132.8"/>
		<line id="XMLID_330_" class="st3" x1="71.6" y1="125.3" x2="70" y2="128.9"/>
		<line id="XMLID_329_" class="st3" x1="82.5" y1="127.2" x2="80.9" y2="130.9"/>
		<line id="XMLID_328_" class="st3" x1="48.7" y1="122" x2="47.5" y2="124.9"/>
		<line id="XMLID_327_" class="st3" x1="35.9" y1="118.1" x2="34.6" y2="121.1"/>
		<line id="XMLID_326_" class="st3" x1="41.8" y1="122" x2="40.5" y2="124.9"/>
		<line id="XMLID_325_" class="st3" x1="45.8" y1="126.9" x2="44.5" y2="129.8"/>
		<line id="XMLID_324_" class="st3" x1="57.6" y1="126.9" x2="56.4" y2="129.8"/>
		<line id="XMLID_323_" class="st3" x1="64.5" y1="126.9" x2="63.3" y2="129.8"/>
		<line id="XMLID_322_" class="st3" x1="76.4" y1="128.8" x2="75.2" y2="131.8"/>
		<line id="XMLID_321_" class="st3" x1="88.3" y1="135.6" x2="87" y2="138.6"/>
		<line id="XMLID_320_" class="st3" x1="38.3" y1="103.7" x2="35.9" y2="109.2"/>
		<line id="XMLID_319_" class="st3" x1="44.8" y1="111.3" x2="43.5" y2="114.2"/>
		<line id="XMLID_318_" class="st3" x1="55.6" y1="97.7" x2="54.4" y2="100.6"/>
		<line id="XMLID_317_" class="st3" x1="44.8" y1="100.6" x2="43.5" y2="103.6"/>
		<line id="XMLID_316_" class="st3" x1="60.6" y1="103.6" x2="59.3" y2="106.5"/>
		<line id="XMLID_315_" class="st3" x1="72.5" y1="118.1" x2="71.2" y2="121.1"/>
		<line id="XMLID_314_" class="st3" x1="83.3" y1="117.2" x2="82.1" y2="120.1"/>
		<line id="XMLID_313_" class="st3" x1="91.4" y1="97.1" x2="89" y2="102.6"/>
		<line id="XMLID_312_" class="st3" x1="97.3" y1="101" x2="94.9" y2="106.5"/>
		<line id="XMLID_311_" class="st3" x1="101.2" y1="104.9" x2="98.9" y2="110.4"/>
		<line id="XMLID_310_" class="st3" x1="105.2" y1="106.8" x2="102.8" y2="112.3"/>
		<line id="XMLID_309_" class="st3" x1="109.2" y1="115.6" x2="106.8" y2="121.1"/>
		<line id="XMLID_308_" class="st3" x1="113.1" y1="121.4" x2="110.8" y2="126.9"/>
		<line id="XMLID_307_" class="st3" x1="115.1" y1="129.2" x2="112.7" y2="134.7"/>
		<line id="XMLID_306_" class="st3" x1="111.1" y1="136" x2="108.8" y2="141.5"/>
		<line id="XMLID_305_" class="st3" x1="115.1" y1="137.9" x2="112.7" y2="143.4"/>
		<line id="XMLID_304_" class="st3" x1="110.1" y1="143.8" x2="107.8" y2="149.3"/>
		<line id="XMLID_303_" class="st3" x1="106.2" y1="144.7" x2="103.8" y2="150.2"/>
		<line id="XMLID_302_" class="st3" x1="101.2" y1="145.7" x2="98.9" y2="151.2"/>
		<line id="XMLID_301_" class="st3" x1="80.5" y1="95.2" x2="78.1" y2="100.6"/>
		<line id="XMLID_300_" class="st3" x1="87.4" y1="95.2" x2="85" y2="100.6"/>
		<line id="XMLID_299_" class="st3" x1="73.6" y1="93.2" x2="71.2" y2="98.7"/>
	</g>
	<g id="XMLID_297_">
		<g id="XMLID_12_">
			<path id="XMLID_16_" class="st1" d="M17.6,125.1c4-0.1,7.7,1.7,10.5,4.5c0.7,0.7,2.2,1,3,0.4c0.7-0.5,1.5-1.1,2.4-1.4
				c2.9-1.2,3.3,0.4,3.4,3.3c0.1,1.3,1.1,2.5,2.5,2.5c16.9-0.5,39.4,3.1,49.9,17.7c1.9,2.6,6.2,0.1,4.3-2.5
				c-11.6-16.3-35.3-20.9-54.1-20.3c0.8,0.8,1.7,1.7,2.5,2.5c-0.4-8.3-6.7-11.2-13.3-6.1c1,0.1,2,0.3,3,0.4
				c-3.7-3.8-8.8-6.1-14.1-5.9C14.4,120.1,14.4,125.1,17.6,125.1L17.6,125.1z"/>
		</g>
	</g>
</g>
</svg>
