<?xml version="1.0" encoding="utf-8"?>
<!-- Generator: Adobe Illustrator 19.0.0, SVG Export Plug-In . SVG Version: 6.00 Build 0)  -->
<svg version="1.1" id="Layer_1" xmlns="http://www.w3.org/2000/svg" xmlns:xlink="http://www.w3.org/1999/xlink" x="0px" y="0px"
	 viewBox="0 0 157.1 111.2" style="enable-background:new 0 0 157.1 111.2;" xml:space="preserve">
<style type="text/css">
	.st0{fill:none;stroke:#102D4E;stroke-width:5;stroke-miterlimit:10;}
	.st1{fill:#F6F6F6;}
	.st2{fill:#102D4E;}
	.st3{opacity:0.6;}
	.st4{fill:none;stroke:#102D4E;stroke-width:2;stroke-miterlimit:10;}
	.st5{fill:#F6F6F6;stroke:#102D4E;stroke-width:5;stroke-miterlimit:10;}
</style>
<g id="XMLID_381_">
	<path id="XMLID_385_" class="st0" d="M90.8,28.3c7.5,10.5,4.9,28.9,1.3,38.4c-1.1,3-3.9,5-7.1,5.1c-10.2,0.4-28.4-3-35.9-13.5
		c-8-11.1-9.2-38.6-7.9-49.9c0.3-2.3,2.5-3.9,4.8-3.5C57.2,7.2,82.8,17.2,90.8,28.3z"/>
	<line id="XMLID_384_" class="st0" x1="89.4" y1="70.3" x2="42.9" y2="5.6"/>
	<polyline id="XMLID_383_" class="st0" points="45.5,51.1 79.2,56.4 87,22.9 	"/>
	<polyline id="XMLID_382_" class="st0" points="40.6,33.2 65.4,36.9 68.9,12.9 	"/>
</g>
<g id="XMLID_296_">
	<g id="XMLID_378_">
		<g id="XMLID_380_">
			<path id="XMLID_30_" class="st1" d="M126.2,93.1c0,16.1-24.6,13.6-51.2,13.6h-64c-4.7,0-7.6-5.2-4.8-9.1c3.1-4.4,6.8-6.6,11.4-12
				c13-15.1,28.4-37.3,57.5-37.3C101.6,48.3,126.2,61.2,126.2,93.1z"/>
			<g id="XMLID_25_">
				<path id="XMLID_29_" class="st2" d="M123.7,93.1c-0.4,11.1-15.9,10.9-23.9,11.2c-8.9,0.3-17.7-0.1-26.6-0.1c-14,0-27.9,0-41.9,0
					c-6,0-11.9,0-17.9,0c-2.1,0-4.4,0.3-5.4-2.1c-1.8-4.3,9.3-12.4,12-15.4c14.7-17.1,29.6-35.3,54.2-35.7
					c11.7-0.2,24.1,2.2,33.8,9.1C118.9,67.6,123.5,80,123.7,93.1c0,3.2,5,3.2,5,0c-0.1-12.1-3.7-24-12.5-32.7
					c-8.2-8.1-19.4-12.2-30.6-13.7c-13-1.8-26.1-0.2-37.6,6.4C37.1,59,28.7,68.4,20.8,77.8c-4.4,5.2-9.1,9.8-13.8,14.8
					c-3.5,3.7-6.3,8.5-2.8,13.2c3.4,4.5,10.1,3.4,15.1,3.4c17.2,0,34.3,0,51.5,0c11.3,0,22.7,0.6,34-0.2
					c10.4-0.7,23.5-3.2,23.9-15.9C128.8,89.8,123.8,89.8,123.7,93.1z"/>
			</g>
		</g>
		<g id="XMLID_379_">
			<path id="XMLID_23_" class="st1" d="M28.8,92.7"/>
			<g id="XMLID_18_">
				<path id="XMLID_22_" class="st2" d="M28.8,95.2c3.2,0,3.2-5,0-5C25.6,90.2,25.6,95.2,28.8,95.2L28.8,95.2z"/>
			</g>
		</g>
	</g>
	<g id="XMLID_298_" class="st3">
		<line id="XMLID_377_" class="st4" x1="58.4" y1="54.7" x2="56.1" y2="60.2"/>
		<line id="XMLID_376_" class="st4" x1="70.5" y1="51.7" x2="68.1" y2="57.2"/>
		<line id="XMLID_375_" class="st4" x1="51.2" y1="60.7" x2="48.8" y2="66.2"/>
		<line id="XMLID_374_" class="st4" x1="42" y1="66.7" x2="39.6" y2="72.2"/>
		<line id="XMLID_373_" class="st4" x1="54.9" y1="70.6" x2="52.5" y2="76.1"/>
		<line id="XMLID_372_" class="st4" x1="65.7" y1="62.8" x2="63.4" y2="68.3"/>
		<line id="XMLID_371_" class="st4" x1="78.6" y1="56" x2="76.2" y2="61.5"/>
		<line id="XMLID_370_" class="st4" x1="89.5" y1="55" x2="87.1" y2="60.5"/>
		<line id="XMLID_369_" class="st4" x1="99.4" y1="60.8" x2="97" y2="66.3"/>
		<line id="XMLID_368_" class="st4" x1="108.3" y1="68.6" x2="105.9" y2="74.1"/>
		<line id="XMLID_367_" class="st4" x1="115.2" y1="79.3" x2="112.8" y2="84.8"/>
		<line id="XMLID_366_" class="st4" x1="107.3" y1="80.3" x2="104.9" y2="85.8"/>
		<line id="XMLID_365_" class="st4" x1="100.3" y1="71.5" x2="98" y2="77"/>
		<line id="XMLID_364_" class="st4" x1="90.5" y1="65.7" x2="88.1" y2="71.2"/>
		<line id="XMLID_363_" class="st4" x1="81.6" y1="65.7" x2="79.2" y2="71.2"/>
		<line id="XMLID_362_" class="st4" x1="71.3" y1="71.7" x2="70.3" y2="74.1"/>
		<line id="XMLID_361_" class="st4" x1="84.5" y1="73.5" x2="82.2" y2="79"/>
		<line id="XMLID_360_" class="st4" x1="76.6" y1="75.4" x2="74.3" y2="80.9"/>
		<line id="XMLID_359_" class="st4" x1="62.8" y1="75.4" x2="60.4" y2="80.9"/>
		<line id="XMLID_358_" class="st4" x1="94.4" y1="75.4" x2="92.1" y2="80.9"/>
		<line id="XMLID_357_" class="st4" x1="83.4" y1="59.5" x2="82.2" y2="62.4"/>
		<line id="XMLID_356_" class="st4" x1="71.6" y1="61.5" x2="70.3" y2="64.4"/>
		<line id="XMLID_355_" class="st4" x1="57.7" y1="64.4" x2="56.5" y2="67.3"/>
		<line id="XMLID_354_" class="st4" x1="68.6" y1="77" x2="67.3" y2="79.9"/>
		<line id="XMLID_353_" class="st4" x1="98.3" y1="80.9" x2="97" y2="83.8"/>
		<line id="XMLID_352_" class="st4" x1="104.2" y1="64.4" x2="102.9" y2="67.3"/>
		<line id="XMLID_351_" class="st4" x1="95.3" y1="68.3" x2="94" y2="71.2"/>
		<line id="XMLID_350_" class="st4" x1="94.3" y1="58.6" x2="93" y2="61.5"/>
		<line id="XMLID_349_" class="st4" x1="83.4" y1="53.7" x2="82.2" y2="56.6"/>
		<line id="XMLID_348_" class="st4" x1="60.7" y1="71.2" x2="59.4" y2="74.1"/>
		<line id="XMLID_347_" class="st4" x1="47.8" y1="70.2" x2="46.6" y2="73.1"/>
		<line id="XMLID_346_" class="st4" x1="35" y1="73.1" x2="33.7" y2="76.1"/>
		<line id="XMLID_345_" class="st4" x1="76.6" y1="65.7" x2="74.3" y2="71.2"/>
		<line id="XMLID_344_" class="st4" x1="67.7" y1="68.6" x2="65.4" y2="74.1"/>
		<line id="XMLID_343_" class="st4" x1="64.8" y1="57" x2="62.4" y2="62.4"/>
		<line id="XMLID_342_" class="st4" x1="75.6" y1="51.1" x2="73.3" y2="56.6"/>
		<line id="XMLID_341_" class="st4" x1="86.5" y1="62.8" x2="84.1" y2="68.3"/>
		<line id="XMLID_340_" class="st4" x1="88.5" y1="76.4" x2="86.1" y2="81.9"/>
		<line id="XMLID_339_" class="st4" x1="104.3" y1="75.4" x2="101.9" y2="80.9"/>
		<line id="XMLID_338_" class="st4" x1="112.2" y1="71.5" x2="109.9" y2="77"/>
		<line id="XMLID_337_" class="st4" x1="110.2" y1="85.2" x2="107.9" y2="90.6"/>
		<line id="XMLID_336_" class="st4" x1="118.1" y1="85.2" x2="115.8" y2="90.6"/>
		<line id="XMLID_335_" class="st4" x1="113.2" y1="92" x2="110.8" y2="97.4"/>
		<line id="XMLID_334_" class="st4" x1="101.3" y1="84.2" x2="99" y2="89.7"/>
		<line id="XMLID_333_" class="st4" x1="104.3" y1="90" x2="101.9" y2="95.5"/>
		<line id="XMLID_332_" class="st4" x1="107.3" y1="95.9" x2="104.9" y2="101.3"/>
		<line id="XMLID_331_" class="st4" x1="94.4" y1="84.2" x2="92.8" y2="87.8"/>
		<line id="XMLID_330_" class="st4" x1="79.6" y1="80.3" x2="78" y2="83.9"/>
		<line id="XMLID_329_" class="st4" x1="90.5" y1="82.2" x2="88.9" y2="85.9"/>
		<line id="XMLID_328_" class="st4" x1="56.7" y1="77" x2="55.5" y2="79.9"/>
		<line id="XMLID_327_" class="st4" x1="43.9" y1="73.1" x2="42.6" y2="76.1"/>
		<line id="XMLID_326_" class="st4" x1="49.8" y1="77" x2="48.5" y2="79.9"/>
		<line id="XMLID_325_" class="st4" x1="53.8" y1="81.9" x2="52.5" y2="84.8"/>
		<line id="XMLID_324_" class="st4" x1="65.6" y1="81.9" x2="64.4" y2="84.8"/>
		<line id="XMLID_323_" class="st4" x1="72.5" y1="81.9" x2="71.3" y2="84.8"/>
		<line id="XMLID_322_" class="st4" x1="84.4" y1="83.8" x2="83.2" y2="86.8"/>
		<line id="XMLID_321_" class="st4" x1="96.3" y1="90.6" x2="95" y2="93.6"/>
		<line id="XMLID_320_" class="st4" x1="46.3" y1="58.7" x2="43.9" y2="64.2"/>
		<line id="XMLID_319_" class="st4" x1="52.8" y1="66.3" x2="51.5" y2="69.2"/>
		<line id="XMLID_318_" class="st4" x1="63.6" y1="52.7" x2="62.4" y2="55.6"/>
		<line id="XMLID_317_" class="st4" x1="52.8" y1="55.6" x2="51.5" y2="58.6"/>
		<line id="XMLID_316_" class="st4" x1="68.6" y1="58.6" x2="67.3" y2="61.5"/>
		<line id="XMLID_315_" class="st4" x1="80.5" y1="73.1" x2="79.2" y2="76.1"/>
		<line id="XMLID_314_" class="st4" x1="91.3" y1="72.2" x2="90.1" y2="75.1"/>
		<line id="XMLID_313_" class="st4" x1="99.4" y1="52.1" x2="97" y2="57.6"/>
		<line id="XMLID_312_" class="st4" x1="105.3" y1="56" x2="102.9" y2="61.5"/>
		<line id="XMLID_311_" class="st4" x1="109.2" y1="59.9" x2="106.9" y2="65.4"/>
		<line id="XMLID_310_" class="st4" x1="113.2" y1="61.8" x2="110.8" y2="67.3"/>
		<line id="XMLID_309_" class="st4" x1="117.2" y1="70.6" x2="114.8" y2="76.1"/>
		<line id="XMLID_308_" class="st4" x1="121.1" y1="76.4" x2="118.8" y2="81.9"/>
		<line id="XMLID_307_" class="st4" x1="123.1" y1="84.2" x2="120.7" y2="89.7"/>
		<line id="XMLID_306_" class="st4" x1="119.1" y1="91" x2="116.8" y2="96.5"/>
		<line id="XMLID_305_" class="st4" x1="123.1" y1="92.9" x2="120.7" y2="98.4"/>
		<line id="XMLID_304_" class="st4" x1="118.1" y1="98.8" x2="115.8" y2="104.3"/>
		<line id="XMLID_303_" class="st4" x1="114.2" y1="99.7" x2="111.8" y2="105.2"/>
		<line id="XMLID_302_" class="st4" x1="109.2" y1="100.7" x2="106.9" y2="106.2"/>
		<line id="XMLID_301_" class="st4" x1="88.5" y1="50.2" x2="86.1" y2="55.6"/>
		<line id="XMLID_300_" class="st4" x1="95.4" y1="50.2" x2="93" y2="55.6"/>
		<line id="XMLID_299_" class="st4" x1="81.6" y1="48.2" x2="79.2" y2="53.7"/>
	</g>
	<g id="XMLID_297_">
		<g id="XMLID_12_">
			<path id="XMLID_16_" class="st2" d="M25.6,80.1c4-0.1,7.7,1.7,10.5,4.5c0.7,0.7,2.2,1,3,0.4c0.7-0.5,1.5-1.1,2.4-1.4
				c2.9-1.2,3.3,0.4,3.4,3.3c0.1,1.3,1.1,2.5,2.5,2.5c16.9-0.5,39.4,3.1,49.9,17.7c1.9,2.6,6.2,0.1,4.3-2.5
				C90,88.3,66.3,83.7,47.5,84.3c0.8,0.8,1.7,1.7,2.5,2.5c-0.4-8.3-6.7-11.2-13.3-6.1c1,0.1,2,0.3,3,0.4c-3.7-3.8-8.8-6.1-14.1-5.9
				C22.4,75.1,22.4,80.1,25.6,80.1L25.6,80.1z"/>
		</g>
	</g>
</g>
<g id="XMLID_291_">
	<path id="XMLID_295_" class="st5" d="M151.9,77.4c-2.1,12.8-16.9,23.9-26.2,28.1c-2.9,1.3-6.3,0.8-8.6-1.4
		c-7.4-6.9-18-22.2-15.9-35c2.2-13.5,20.8-33.8,29.7-40.8c1.9-1.5,4.6-1,5.9,1C143.1,38.7,154.2,63.9,151.9,77.4z"/>
	<line id="XMLID_294_" class="st0" x1="121.2" y1="106" x2="134.1" y2="27.4"/>
	<polyline id="XMLID_293_" class="st0" points="103.8,61.5 123.9,89.1 153,70.9 	"/>
	<polyline id="XMLID_292_" class="st0" points="113,45.4 127.9,65.5 147.3,51 	"/>
</g>
</svg>
