<?xml version="1.0" encoding="utf-8"?>
<!-- Generator: Adobe Illustrator 19.0.0, SVG Export Plug-In . SVG Version: 6.00 Build 0)  -->
<svg version="1.1" id="Layer_1" xmlns="http://www.w3.org/2000/svg" xmlns:xlink="http://www.w3.org/1999/xlink" x="0px" y="0px"
	 viewBox="0 0 102.1 121.1" style="enable-background:new 0 0 102.1 121.1;" xml:space="preserve">
<style type="text/css">
	.st0{fill:#F6F6F6;stroke:#102D4E;stroke-width:5;stroke-miterlimit:10;}
	.st1{fill:none;stroke:#102D4E;stroke-width:5;stroke-miterlimit:10;}
</style>
<g id="XMLID_391_">
	<path id="XMLID_409_" class="st0" d="M45.7,56C32.9,53.9,21.8,39,17.6,29.8c-1.3-2.9-0.8-6.3,1.4-8.6c6.9-7.4,22.2-18,35-15.9
		C67.5,7.5,87.8,26.1,94.8,35c1.5,1.9,1,4.6-1,5.9C84.3,47.1,59.2,58.2,45.7,56z"/>
	<line id="XMLID_402_" class="st1" x1="17" y1="25.3" x2="95.6" y2="38.1"/>
	<polyline id="XMLID_396_" class="st1" points="61.5,7.8 34,27.9 52.2,57 	"/>
	<polyline id="XMLID_395_" class="st1" points="77.6,17 57.6,31.9 72,51.3 	"/>
</g>
<g id="XMLID_386_">
	<path id="XMLID_390_" class="st0" d="M11.1,83c-10.7-14.9-7-40.9-1.9-54.3c1.6-4.2,5.5-7,10-7.2c14.4-0.5,40.2,4.2,50.9,19.1
		c11.3,15.7,13.1,54.6,11.1,70.6c-0.4,3.3-3.6,5.6-6.8,4.9C58.7,112.8,22.4,98.7,11.1,83z"/>
	<line id="XMLID_389_" class="st1" x1="13.2" y1="23.5" x2="79" y2="115.1"/>
	<polyline id="XMLID_388_" class="st1" points="75.2,50.6 27.5,43.2 16.6,90.5 	"/>
	<polyline id="XMLID_387_" class="st1" points="82.2,75.9 47.1,70.8 42.2,104.7 	"/>
</g>
</svg>
