<?xml version="1.0" encoding="utf-8"?>
<!-- Generator: Adobe Illustrator 19.0.0, SVG Export Plug-In . SVG Version: 6.00 Build 0)  -->
<svg version="1.1" xmlns="http://www.w3.org/2000/svg" xmlns:xlink="http://www.w3.org/1999/xlink" x="0px" y="0px"
	 viewBox="0 0 1920 1080" style="enable-background:new 0 0 1920 1080;" xml:space="preserve">
<style type="text/css">
	.st0{fill:none;stroke:#102D4E;stroke-width:5;stroke-miterlimit:10;}
	.st1{fill:#102D4E;}
	.st2{fill:#F6F6F6;}
	.st3{fill:#FFFFFF;}
	.st4{opacity:0.6;}
	.st5{fill:none;stroke:#102D4E;stroke-width:2;stroke-miterlimit:10;}
	.st6{fill:#F6F6F6;stroke:#102D4E;stroke-width:5;stroke-miterlimit:10;}
</style>
<g id="Layer_2">
	<rect id="XMLID_73_" x="58" y="30.9" class="st0" width="1786.6" height="1001.6"/>
</g>
<g id="Layer_1">
	<g id="XMLID_7_">
		<path id="XMLID_64_" class="st1" d="M-775.8,523.6h-12.6c0,0-12.2-5.9-23.3-2.8c-11.1,3.2-15.7,6.6-25.1,5.4
			c-9.4-1.1-26.3-37.7-10-75.7c16.3-38,23.9-61.1,71.1-61.1h0c47.1,0,54.8,23.1,71.1,61.1c16.3,38-0.6,74.5-10,75.7
			c-9.4,1.1-14-2.3-25.1-5.4c-11.1-3.1-23.3,2.8-23.3,2.8H-775.8"/>
		<g id="XMLID_59_">
			<path id="XMLID_63_" class="st1" d="M-775.8,521.1c-2.3,0-4.5,0-6.8,0c-1.3,0-2.7-0.1-4,0c-1.7,0.1-1.9-0.1-0.9,0.2
				c-7.1-2.3-13.7-4.7-21.4-3.6c-8.4,1.2-19,8.8-27.8,6.1c-5.2-1.6-8.3-9.6-10-14.1c-7.9-20.9-4.5-42.7,4-62.7
				c5.7-13.3,11-27.8,20.8-38.7c10.3-11.5,25-15.5,40-16.1c15.3-0.7,32.3,0.5,45.1,9.9c11.1,8.1,17.3,21.2,22.7,33.4
				c4.1,9.2,8.6,18.6,11.1,28.4c2.8,10.9,3.3,22.5,1.3,33.6c-1.5,8.1-4.1,17.4-9.7,23.7c-5.9,6.5-16.7,0.8-23.6-1.4
				c-9.4-3.1-18.8-2.9-28,1c-0.4,0.2-0.8,0.4-1.2,0.5c-1,0.3,1.7-0.2,0.6-0.2c-1.3,0-2.6,0-4,0C-770.3,521.1-773,521.1-775.8,521.1
				c-3.2,0-3.2,5,0,5c4.4,0,9.7,0.9,14-0.4c3.4-1,6.6-2.4,10.2-3c6.8-1,12.8,0.9,19.1,3.1c6.4,2.2,15.6,5.6,21.9,1.3
				c5.3-3.6,8.3-10.5,10.5-16.2c8.1-21.6,4.8-44.6-4-65.3c-6.1-14.2-11.8-29.7-22.4-41.2c-10.9-11.8-26.2-16.3-41.8-17.2
				c-16.6-1-35.2,0.4-49.1,10.5c-12.3,8.8-19.1,22.8-25,36.3c-4.3,9.8-9.1,19.8-11.5,30.3c-2.5,10.8-2.9,22.1-1.1,33.1
				c1.5,8.9,4.3,18.5,10,25.8c4.9,6.3,11.3,6.8,18.9,5c6.4-1.5,12.5-5,19.2-5.6c5.4-0.5,10.9,0.7,16,2.7c4.6,1.8,10.2,0.9,15.2,0.9
				C-772.6,526.1-772.6,521.1-775.8,521.1L-775.8,521.1z"/>
		</g>
	</g>
	<g id="XMLID_6_">
		<path id="XMLID_119_" class="st2" d="M-728,457.6c0,25.8-12.8,47.7-30.7,56.4c-2.6,1.3-4.3,3.9-4.3,6.8v15.4l-12.7,8l-12.8-8
			v-15.4c0-2.9-1.7-5.5-4.3-6.8c-18-8.7-30.7-30.7-30.7-56.4c0,0,45.5-7.1,67.8-29.3L-728,457.6z"/>
		<g id="XMLID_114_">
			<path id="XMLID_118_" class="st1" d="M-730.5,457.6c-0.2,19.3-7.5,39.9-24,51.1c-5.7,3.9-10.8,5.5-11,13.2c-0.1,4.7,0,9.5,0,14.2
				c0.4-0.7,0.8-1.4,1.2-2.2c-4.2,2.7-8.5,5.3-12.7,8c0.8,0,1.7,0,2.5,0c-4.3-2.7-8.5-5.3-12.8-8c0.4,0.7,0.8,1.4,1.2,2.2
				c0-4.6,0.1-9.3,0-13.9c0-2.4-0.2-4.6-1.5-6.7c-2.1-3.4-6.3-4.6-9.5-6.8c-16.5-11.2-23.8-31.9-24-51.1c-0.6,0.8-1.2,1.6-1.8,2.4
				c24.1-3.8,51.2-12.7,68.9-30c-1.2,0-2.4,0-3.5,0c9.3,9.8,18.5,19.6,27.8,29.3c2.2,2.3,5.8-1.2,3.5-3.5
				c-9.3-9.8-18.5-19.6-27.8-29.3c-0.9-1-2.6-0.9-3.5,0c-17.1,16.7-43.5,25-66.7,28.7c-1.1,0.2-1.8,1.4-1.8,2.4
				c0.1,12.5,2.9,24.9,9,35.9c2.7,4.9,6.1,9.5,10.1,13.5c2,2,4.1,3.8,6.4,5.4c2.3,1.7,5.2,2.7,7.4,4.5c5.2,4.3,0.6,14,2.3,19.7
				c0.7,2.3,4,3.6,5.9,4.8c2.7,1.7,5.3,3.4,8,5c0.7,0.5,1.8,0.5,2.5,0c2.5-1.6,5.1-3.2,7.6-4.8c1.8-1.1,5.4-2.5,6.3-4.7
				c0.9-2.2,0.1-6.1,0.1-8.4c0-3.7-1-9,2.2-11.7c2.2-1.8,5.1-2.9,7.4-4.5c2.1-1.5,4.1-3.1,5.9-4.9c4-3.9,7.5-8.4,10.2-13.3
				c6.3-11.1,9.2-23.8,9.3-36.5C-725.5,454.3-730.5,454.3-730.5,457.6z"/>
		</g>
	</g>
	<g id="XMLID_2_">
		<polyline id="XMLID_258_" class="st3" points="-781.8,448.9 -781.8,486.6 -771.9,486.6 		"/>
		<g id="XMLID_246_">
			<path id="XMLID_257_" class="st1" d="M-784.3,448.9c0,12.6,0,25.1,0,37.7c0,1.4,1.1,2.5,2.5,2.5c3.3,0,6.6,0,9.9,0
				c3.2,0,3.2-5,0-5c-3.3,0-6.6,0-9.9,0c0.8,0.8,1.7,1.7,2.5,2.5c0-12.6,0-25.1,0-37.7C-779.3,445.7-784.3,445.6-784.3,448.9
				L-784.3,448.9z"/>
		</g>
	</g>
	<g id="XMLID_3_">
		<g id="XMLID_29_">
			<path id="XMLID_33_" class="st1" d="M-756.8,473.1c6.4,0,6.4-10,0-10C-763.2,463.1-763.3,473.1-756.8,473.1L-756.8,473.1z"/>
		</g>
	</g>
	<g id="XMLID_4_">
		<g id="XMLID_21_">
			<path id="XMLID_25_" class="st1" d="M-798.7,473.1c6.4,0,6.4-10,0-10C-805.2,463.1-805.2,473.1-798.7,473.1L-798.7,473.1z"/>
		</g>
	</g>
	<g id="XMLID_1_">
		<g id="XMLID_70_">
			<path id="XMLID_165_" class="st1" d="M-778,542.9c-3.5,4.5-7,9-10.4,13.5c1.3-0.2,2.6-0.3,3.9-0.5c-2.9-2.3-5.8-4.6-8.7-7
				c-2.2-1.8-4.5-3.6-6.7-5.3c-1.1-0.9-3.1-3.3-4.5-3.6c-1.6-0.4,1.1,0.1,0.1,1.2c0.1-0.1-0.1-0.8-0.1-1c0.3-1.3,0.1-2.7,0.5-4.1
				c2.1-6.6,9.3-7.3,15.2-7c-0.8-0.8-1.7-1.7-2.5-2.5c0,3.5-1.4,9.5,1.5,12c3.6,3.1,8.4,5.3,12.5,7.8c2.7,1.7,5.2-2.6,2.5-4.3
				c-4.3-2.7-8.5-5.3-12.8-8c0.4,0.7,0.8,1.4,1.2,2.2c0-3.2,0-6.4,0-9.6c0-1.4-1.1-2.4-2.5-2.5c-6.7-0.3-14.4,0.8-18.3,6.9
				c-1.8,2.7-3,7-2.3,10.3c0.8,3.5,6.4,6.4,9.1,8.5c4,3.2,8.1,6.5,12.1,9.7c1.4,1.1,2.9,0.9,3.9-0.5c3.5-4.5,7-9,10.4-13.5
				C-771.7,542.9-776,540.4-778,542.9z"/>
		</g>
	</g>
	<g id="XMLID_5_">
		<g id="XMLID_58_">
			<path id="XMLID_68_" class="st1" d="M-778,545.4c3.5,4.5,7,9,10.4,13.5c1.1,1.4,2.6,1.6,3.9,0.5c3.9-3.1,7.8-6.3,11.8-9.4
				c2.7-2.2,8.7-5.2,9.4-8.8c0.7-3.2-0.5-7.3-2.1-10c-3.9-6.4-11.7-7.6-18.5-7.2c-1.3,0.1-2.5,1.1-2.5,2.5c0,3.2,0,6.4,0,9.6
				c0.4-0.7,0.8-1.4,1.2-2.2c-4.3,2.7-8.5,5.3-12.8,8c-2.7,1.7-0.2,6,2.5,4.3c4-2.5,8.9-4.7,12.5-7.8c2.9-2.5,1.5-8.4,1.5-12
				c-0.8,0.8-1.7,1.7-2.5,2.5c5.8-0.3,12.9,0.4,15.1,6.7c0.5,1.4,0.4,2.8,0.6,4.2c0,0.3-0.2,0.9-0.1,1.1c-0.7-1.2,1.6-1.3,0.1-1.1
				c-1.2,0.2-3.2,2.6-4.2,3.3c-2.2,1.8-4.4,3.5-6.6,5.3c-3,2.4-6.1,4.8-9.1,7.3c1.3,0.2,2.6,0.3,3.9,0.5c-3.5-4.5-7-9-10.4-13.5
				C-775.6,540.4-779.9,542.9-778,545.4z"/>
		</g>
	</g>
	<g id="XMLID_35_">
		<g id="XMLID_50_">
			<path id="XMLID_54_" class="st1" d="M-720.8,581.5c-24.9,0-49.7,0-74.6,0c-11.1,0-22.3,0.4-33.3,0c-11.8-0.4-6.5-14.4-2.7-20.8
				c4.1-7,10.7-12.3,18.3-15.1c1.7-0.6,5.1-0.7,6.5-1.8c0.5-0.4-1.8-1.1-1.3-0.4c0.6,1,2.5,2,3.3,2.7c5.6,4.4,11.1,8.9,16.7,13.3
				c1.4,1.1,2.9,0.9,3.9-0.5c3.5-4.5,7-9,10.4-13.5c-1.3,0.2-2.6,0.3-3.9,0.5c3.8,4.5,7.6,9,11.4,13.5c0.9,1.1,2.6,0.8,3.5,0
				c4.7-3.7,9.3-7.5,14-11.2c1.4-1.1,5.4-3.2,6.1-4.9c0.2-0.4-1.7,0.3-1.6,0.5c0.3,0.3,1.7,0.3,2.1,0.4c5.9,1.4,11.6,4.3,16.2,8.3
				C-720.5,557.3-706,580.4-720.8,581.5c-3.2,0.2-3.2,5.2,0,5c5.8-0.4,10.8-4.3,11.4-10.4c0.6-6.1-2.7-13.4-5.8-18.5
				c-4.9-8-12.5-13.9-21.3-17c-2-0.7-4.3-1.6-6.5-1.7c-2.2-0.1-3.2,1-4.9,2.3c-6.1,4.9-12.2,9.8-18.3,14.7c1.2,0,2.4,0,3.5,0
				c-3.8-4.5-7.6-9-11.4-13.5c-1.2-1.4-3-0.6-3.9,0.5c-3.5,4.5-7,9-10.4,13.5c1.3-0.2,2.6-0.3,3.9-0.5c-5.5-4.4-10.9-8.7-16.4-13.1
				c-3.7-2.9-5.2-4.5-9.8-3.3c-6.8,1.7-13.3,5.3-18.4,10.1c-3.8,3.6-6.7,8-8.8,12.7c-2.1,4.8-4.5,11.1-2.8,16.2
				c3.6,11,20.5,7.8,29.4,7.8c17.9,0,35.8,0,53.6,0c12.3,0,24.6,0,36.9,0C-717.6,586.5-717.6,581.5-720.8,581.5z"/>
		</g>
	</g>
	<g id="XMLID_104_">
		<path id="XMLID_87_" class="st0" d="M1752.2,952.7c7.5,10.5,4.9,28.9,1.3,38.4c-1.1,3-3.9,5-7.1,5.1c-10.2,0.4-28.4-3-35.9-13.5
			c-8-11.1-9.2-38.6-7.9-49.9c0.3-2.3,2.5-3.9,4.8-3.5C1718.5,931.6,1744.2,941.6,1752.2,952.7z"/>
		<line id="XMLID_102_" class="st0" x1="1750.7" y1="994.7" x2="1704.2" y2="930"/>
		<polyline id="XMLID_103_" class="st0" points="1706.9,975.5 1740.6,980.8 1748.3,947.3 		"/>
		<polyline id="XMLID_101_" class="st0" points="1702,957.6 1726.7,961.3 1730.2,937.3 		"/>
	</g>
	<g id="XMLID_41_">
		<g id="XMLID_252_">
			<path id="XMLID_256_" class="st2" d="M-795.3,397.1c-7.4,1.5-14.1,4.5-19.9,9.4c-2.5,2.1,1.1,5.6,3.5,3.5
				c5.1-4.4,11.2-6.8,17.7-8.1C-790.8,401.3-792.1,396.5-795.3,397.1L-795.3,397.1z"/>
		</g>
	</g>
	<g id="XMLID_16_">
		<g id="XMLID_259_">
			<path id="XMLID_263_" class="st2" d="M-821.7,419.5c3.2,0,3.2-5,0-5C-825,414.5-825,419.5-821.7,419.5L-821.7,419.5z"/>
		</g>
	</g>
	<g id="XMLID_45_">
		<g id="XMLID_266_">
			<path id="XMLID_270_" class="st1" d="M-810.5,548.2c-8.9,2.8-16,10-17.2,19.4c-0.4,3.2,4.6,3.2,5,0c0.9-7,7-12.5,13.6-14.6
				C-806.1,552-807.4,547.2-810.5,548.2L-810.5,548.2z"/>
		</g>
	</g>
	<g id="XMLID_40_">
		<g id="XMLID_10_">
			<g id="XMLID_225_">
				<path id="XMLID_217_" class="st2" d="M1787.5,1014.2c0,20-30.5,16.8-63.5,16.8h-79.4c-5.9,0-9.4-6.5-6-11.2
					c3.9-5.5,8.4-8.1,14.1-14.8c16.1-18.7,35.2-46.2,71.2-46.2C1757,958.7,1787.5,974.7,1787.5,1014.2z"/>
				<g id="XMLID_149_">
					<path id="XMLID_166_" class="st1" d="M1785,1014.2c-0.4,13.8-18.8,14-28.9,14.4c-11.4,0.4-22.9,0-34.4,0c-17.8,0-35.6,0-53.4,0
						c-7.2,0-14.4,0-21.7,0c-3.3,0-7.3-0.8-6.8-5.2c0.4-3.4,4.5-6.5,6.8-8.7c3.1-2.9,6.1-5.9,8.8-9.1c18.3-21.4,37-43.9,67.6-44.2
						c14.7-0.2,30.1,2.9,42.3,11.5C1779.1,982.4,1784.8,997.9,1785,1014.2c0,3.2,5,3.2,5,0c-0.1-15.1-4.7-29.9-15.8-40.6
						c-10.2-9.8-23.9-14.7-37.7-16.5c-16.1-2.1-32.2,0.1-46.4,8.3c-13,7.5-23.1,18.8-32.7,30.1c-5.3,6.3-10.9,12-16.7,17.9
						c-4.4,4.5-8.6,10.6-3.8,16.5c4.2,5.2,12.7,3.7,18.6,3.7c21,0,42,0,63.1,0c13.4,0,26.9,0.6,40.3-0.1c12.8-0.7,30.6-3,31-19.3
						C1790.1,1010.9,1785.1,1010.9,1785,1014.2z"/>
				</g>
			</g>
			<g id="XMLID_224_">
				<path id="XMLID_142_" class="st2" d="M1666.8,1013.7"/>
				<g id="XMLID_137_">
					<path id="XMLID_141_" class="st1" d="M1666.8,1016.2c3.2,0,3.2-5,0-5C1663.6,1011.2,1663.6,1016.2,1666.8,1016.2L1666.8,1016.2
						z"/>
				</g>
			</g>
		</g>
		<g id="XMLID_92_" class="st4">
			<line id="XMLID_184_" class="st5" x1="1703.5" y1="966.6" x2="1700.6" y2="973.4"/>
			<line id="XMLID_183_" class="st5" x1="1718.5" y1="962.9" x2="1715.6" y2="969.7"/>
			<line id="XMLID_105_" class="st5" x1="1694.6" y1="974.1" x2="1691.7" y2="980.9"/>
			<line id="XMLID_99_" class="st5" x1="1683.2" y1="981.5" x2="1680.3" y2="988.3"/>
			<line id="XMLID_97_" class="st5" x1="1699.1" y1="986.3" x2="1696.2" y2="993.1"/>
			<line id="XMLID_98_" class="st5" x1="1712.6" y1="976.7" x2="1709.7" y2="983.5"/>
			<line id="XMLID_100_" class="st5" x1="1728.5" y1="968.2" x2="1725.6" y2="975"/>
			<line id="XMLID_143_" class="st5" x1="1742" y1="967" x2="1739.1" y2="973.8"/>
			<line id="XMLID_144_" class="st5" x1="1754.3" y1="974.2" x2="1751.4" y2="981"/>
			<line id="XMLID_145_" class="st5" x1="1765.3" y1="983.9" x2="1762.4" y2="990.7"/>
			<line id="XMLID_146_" class="st5" x1="1773.9" y1="997.1" x2="1771" y2="1003.9"/>
			<line id="XMLID_147_" class="st5" x1="1764.1" y1="998.3" x2="1761.2" y2="1005.1"/>
			<line id="XMLID_152_" class="st5" x1="1755.5" y1="987.5" x2="1752.6" y2="994.3"/>
			<line id="XMLID_153_" class="st5" x1="1743.3" y1="980.3" x2="1740.3" y2="987.1"/>
			<line id="XMLID_154_" class="st5" x1="1732.2" y1="980.3" x2="1729.3" y2="987.1"/>
			<line id="XMLID_155_" class="st5" x1="1719.6" y1="987.7" x2="1718.3" y2="990.7"/>
			<line id="XMLID_156_" class="st5" x1="1735.9" y1="989.9" x2="1733" y2="996.7"/>
			<line id="XMLID_158_" class="st5" x1="1726.1" y1="992.3" x2="1723.2" y2="999.1"/>
			<line id="XMLID_159_" class="st5" x1="1708.9" y1="992.3" x2="1706" y2="999.1"/>
			<line id="XMLID_160_" class="st5" x1="1748.2" y1="992.3" x2="1745.2" y2="999.1"/>
			<line id="XMLID_161_" class="st5" x1="1734.5" y1="972.6" x2="1733" y2="976.2"/>
			<line id="XMLID_172_" class="st5" x1="1719.8" y1="975" x2="1718.3" y2="978.6"/>
			<line id="XMLID_173_" class="st5" x1="1702.7" y1="978.6" x2="1701.1" y2="982.2"/>
			<line id="XMLID_174_" class="st5" x1="1716.1" y1="994.3" x2="1714.6" y2="997.9"/>
			<line id="XMLID_175_" class="st5" x1="1752.9" y1="999.1" x2="1751.4" y2="1002.7"/>
			<line id="XMLID_176_" class="st5" x1="1760.3" y1="978.6" x2="1758.7" y2="982.2"/>
			<line id="XMLID_177_" class="st5" x1="1749.2" y1="983.5" x2="1747.7" y2="987.1"/>
			<line id="XMLID_178_" class="st5" x1="1748" y1="971.4" x2="1746.5" y2="975"/>
			<line id="XMLID_179_" class="st5" x1="1734.5" y1="965.4" x2="1733" y2="969"/>
			<line id="XMLID_180_" class="st5" x1="1706.3" y1="987.1" x2="1704.8" y2="990.7"/>
			<line id="XMLID_181_" class="st5" x1="1690.4" y1="985.9" x2="1688.8" y2="989.5"/>
			<line id="XMLID_182_" class="st5" x1="1674.5" y1="989.5" x2="1672.9" y2="993.1"/>
			<line id="XMLID_185_" class="st5" x1="1726.1" y1="980.3" x2="1723.2" y2="987.1"/>
			<line id="XMLID_186_" class="st5" x1="1715.1" y1="983.9" x2="1712.1" y2="990.7"/>
			<line id="XMLID_187_" class="st5" x1="1711.4" y1="969.4" x2="1708.5" y2="976.2"/>
			<line id="XMLID_188_" class="st5" x1="1724.9" y1="962.2" x2="1721.9" y2="969"/>
			<line id="XMLID_189_" class="st5" x1="1738.3" y1="976.7" x2="1735.4" y2="983.5"/>
			<line id="XMLID_190_" class="st5" x1="1740.8" y1="993.5" x2="1737.9" y2="1000.3"/>
			<line id="XMLID_191_" class="st5" x1="1760.4" y1="992.3" x2="1757.5" y2="999.1"/>
			<line id="XMLID_192_" class="st5" x1="1770.2" y1="987.5" x2="1767.3" y2="994.3"/>
			<line id="XMLID_193_" class="st5" x1="1767.8" y1="1004.4" x2="1764.8" y2="1011.2"/>
			<line id="XMLID_194_" class="st5" x1="1777.6" y1="1004.4" x2="1774.6" y2="1011.2"/>
			<line id="XMLID_195_" class="st5" x1="1771.4" y1="1012.8" x2="1768.5" y2="1019.6"/>
			<line id="XMLID_196_" class="st5" x1="1756.7" y1="1003.2" x2="1753.8" y2="1010"/>
			<line id="XMLID_197_" class="st5" x1="1760.4" y1="1010.4" x2="1757.5" y2="1017.2"/>
			<line id="XMLID_198_" class="st5" x1="1764.1" y1="1017.6" x2="1761.2" y2="1024.4"/>
			<line id="XMLID_199_" class="st5" x1="1748.2" y1="1003.2" x2="1746.2" y2="1007.7"/>
			<line id="XMLID_200_" class="st5" x1="1729.8" y1="998.3" x2="1727.8" y2="1002.9"/>
			<line id="XMLID_201_" class="st5" x1="1743.3" y1="1000.8" x2="1741.3" y2="1005.3"/>
			<line id="XMLID_202_" class="st5" x1="1701.4" y1="994.3" x2="1699.9" y2="997.9"/>
			<line id="XMLID_203_" class="st5" x1="1685.5" y1="989.5" x2="1683.9" y2="993.1"/>
			<line id="XMLID_204_" class="st5" x1="1692.9" y1="994.3" x2="1691.3" y2="997.9"/>
			<line id="XMLID_205_" class="st5" x1="1697.8" y1="1000.3" x2="1696.2" y2="1003.9"/>
			<line id="XMLID_206_" class="st5" x1="1712.5" y1="1000.3" x2="1710.9" y2="1003.9"/>
			<line id="XMLID_207_" class="st5" x1="1721" y1="1000.3" x2="1719.5" y2="1003.9"/>
			<line id="XMLID_208_" class="st5" x1="1735.8" y1="1002.7" x2="1734.2" y2="1006.4"/>
			<line id="XMLID_209_" class="st5" x1="1750.5" y1="1011.2" x2="1748.9" y2="1014.8"/>
			<line id="XMLID_210_" class="st5" x1="1688.5" y1="971.6" x2="1685.5" y2="978.4"/>
			<line id="XMLID_211_" class="st5" x1="1696.5" y1="981" x2="1695" y2="984.7"/>
			<line id="XMLID_212_" class="st5" x1="1710" y1="964.2" x2="1708.5" y2="967.8"/>
			<line id="XMLID_213_" class="st5" x1="1696.5" y1="967.8" x2="1695" y2="971.4"/>
			<line id="XMLID_214_" class="st5" x1="1716.1" y1="971.4" x2="1714.6" y2="975"/>
			<line id="XMLID_215_" class="st5" x1="1730.8" y1="989.5" x2="1729.3" y2="993.1"/>
			<line id="XMLID_216_" class="st5" x1="1744.3" y1="988.3" x2="1742.8" y2="991.9"/>
			<line id="XMLID_8_" class="st5" x1="1754.3" y1="963.4" x2="1751.4" y2="970.2"/>
			<line id="XMLID_9_" class="st5" x1="1761.6" y1="968.2" x2="1758.7" y2="975"/>
			<line id="XMLID_11_" class="st5" x1="1766.5" y1="973" x2="1763.6" y2="979.8"/>
			<line id="XMLID_12_" class="st5" x1="1771.4" y1="975.4" x2="1768.5" y2="982.2"/>
			<line id="XMLID_13_" class="st5" x1="1776.3" y1="986.3" x2="1773.4" y2="993.1"/>
			<line id="XMLID_17_" class="st5" x1="1781.2" y1="993.5" x2="1778.3" y2="1000.3"/>
			<line id="XMLID_18_" class="st5" x1="1783.7" y1="1003.2" x2="1780.8" y2="1010"/>
			<line id="XMLID_20_" class="st5" x1="1778.8" y1="1011.6" x2="1775.9" y2="1018.4"/>
			<line id="XMLID_26_" class="st5" x1="1783.7" y1="1014" x2="1780.8" y2="1020.8"/>
			<line id="XMLID_27_" class="st5" x1="1777.6" y1="1021.2" x2="1774.6" y2="1028"/>
			<line id="XMLID_28_" class="st5" x1="1772.7" y1="1022.5" x2="1769.7" y2="1029.2"/>
			<line id="XMLID_34_" class="st5" x1="1766.5" y1="1023.7" x2="1763.6" y2="1030.5"/>
			<line id="XMLID_37_" class="st5" x1="1740.8" y1="961" x2="1737.9" y2="967.8"/>
			<line id="XMLID_38_" class="st5" x1="1749.4" y1="961" x2="1746.5" y2="967.8"/>
			<line id="XMLID_39_" class="st5" x1="1732.2" y1="958.6" x2="1729.3" y2="965.4"/>
		</g>
		<g id="XMLID_78_">
			<g id="XMLID_131_">
				<path id="XMLID_135_" class="st1" d="M1662.9,997.5c5.1-0.2,9.9,2.1,13.5,5.7c0.7,0.7,2.2,1,3,0.4c1-0.8,2.2-1.5,3.4-2
					c3.8-1.5,4.5,1.1,4.7,4.8c0.1,1.3,1.1,2.5,2.5,2.5c21.1-0.7,49.3,4,62.4,22.2c1.9,2.6,6.2,0.1,4.3-2.5
					c-14.2-19.8-43.6-25.4-66.7-24.7c0.8,0.8,1.7,1.7,2.5,2.5c-0.2-4.7-1.6-10.2-7.2-10.3c-2.9-0.1-6.1,1.5-8.4,3.2
					c1,0.1,2,0.3,3,0.4c-4.4-4.5-10.6-7.4-17-7.2C1659.7,992.6,1659.6,997.6,1662.9,997.5L1662.9,997.5z"/>
			</g>
		</g>
	</g>
	<g id="XMLID_106_">
		<path id="XMLID_110_" class="st6" d="M1813.3,1001.8c-2.1,12.8-16.9,23.9-26.2,28.1c-2.9,1.3-6.3,0.8-8.6-1.4
			c-7.4-6.9-18-22.2-15.9-35c2.2-13.5,20.8-33.8,29.7-40.8c1.9-1.5,4.6-1,5.9,1C1804.4,963.1,1815.5,988.3,1813.3,1001.8z"/>
		<line id="XMLID_109_" class="st0" x1="1782.6" y1="1030.4" x2="1795.5" y2="951.8"/>
		<polyline id="XMLID_108_" class="st0" points="1765.1,985.9 1785.2,1013.5 1814.4,995.3 		"/>
		<polyline id="XMLID_107_" class="st0" points="1774.3,969.8 1789.2,989.9 1808.6,975.4 		"/>
	</g>
</g>
</svg>
